<svg xmlns="http://www.w3.org/2000/svg" viewBox="0 0 640 480" role="img" aria-labelledby="title desc">
  <title id="title">F1 Inspired Logo</title>
  <desc id="desc">Stylised Formula 1 mark above a racing car silhouette.</desc>
  <g fill="#0d0d0d">
    <path d="M68 104c0-10.493 8.507-19 19-19h228c42.801 0 77.5 34.699 77.5 77.5S357.801 240 315 240H154c-6.627 0-12-5.373-12-12V192c0-6.627 5.373-12 12-12h161c14.359 0 26-11.641 26-26s-11.641-26-26-26H87c-10.493 0-19-8.507-19-19Z"/>
    <path d="M372 85c0-10.493 8.507-19 19-19h72c55.228 0 100 44.772 100 100 0 33.137-26.863 60-60 60h-90c-10.493 0-19-8.507-19-19v-28c0-10.493 8.507-19 19-19h66c11.046 0 20-8.954 20-20s-8.954-20-20-20h-88c-10.493 0-19-8.507-19-19Z"/>
    <path d="M320 276c-70.139 0-132.215 33.078-163.52 83.064-3.563 5.616 0.43 12.936 7.02 12.936h53.262c3.383 0 6.588-1.53 8.722-4.161l24.705-30.081h138.622l24.705 30.081c2.134 2.631 5.339 4.161 8.722 4.161h53.262c6.59 0 10.583-7.32 7.02-12.936C452.215 309.078 390.139 276 320 276Zm-96.5 54.5 20-24h153l20 24h-193Z"/>
    <path d="M320 260c12.15 0 22-9.85 22-22v-16c0-12.15-9.85-22-22-22s-22 9.85-22 22v16c0 12.15 9.85 22 22 22Z"/>
    <path d="M198 320c0 8.837-7.163 16-16 16h-12c-17.673 0-32 14.327-32 32v4h-26c-5.523 0-10-4.477-10-10v-20c0-53.019 42.981-96 96-96h14c8.837 0 16 7.163 16 16v42c0 8.837-7.163 16-16 16h-14Z"/>
    <path d="M442 320c0 8.837 7.163 16 16 16h12c17.673 0 32 14.327 32 32v4h26c5.523 0 10-4.477 10-10v-20c0-53.019-42.981-96-96-96h-14c-8.837 0-16 7.163-16 16v42c0 8.837 7.163 16 16 16h14Z"/>
  </g>
</svg>
